<svg width="24" height="24" viewBox="0 0 24 24" fill="none" xmlns="http://www.w3.org/2000/svg">
<rect width="24" height="24" rx="3.75" fill="#101E40"/>
<path d="M10.9889 15.0333L16.0806 9.94167L15.0694 8.93056L10.9889 13.0111L8.93056 10.9528L7.91944 11.9639L10.9889 15.0333ZM6.94444 18.5C6.54722 18.5 6.20706 18.3587 5.92394 18.0761C5.64131 17.7929 5.5 17.4528 5.5 17.0556V6.94444C5.5 6.54722 5.64131 6.20706 5.92394 5.92394C6.20706 5.64131 6.54722 5.5 6.94444 5.5H17.0556C17.4528 5.5 17.7929 5.64131 18.0761 5.92394C18.3587 6.20706 18.5 6.54722 18.5 6.94444V17.0556C18.5 17.4528 18.3587 17.7929 18.0761 18.0761C17.7929 18.3587 17.4528 18.5 17.0556 18.5H6.94444ZM6.94444 17.0556H17.0556V6.94444H6.94444V17.0556ZM6.94444 6.94444V17.0556V6.94444Z" fill="white"/>
</svg>
